<svg width="35" height="28" viewBox="0 0 35 28" fill="none" xmlns="http://www.w3.org/2000/svg">
<path d="M27.5 20.6667H24.1667V19H10.8333V20.6667H7.50001V19H0.833344V27.3333H34.1667V19H27.5V20.6667ZM30.8333 7.33332H25.8333V3.99999C25.8333 2.16666 24.3333 0.666656 22.5 0.666656H12.5C10.6667 0.666656 9.16668 2.16666 9.16668 3.99999V7.33332H4.16668C2.33334 7.33332 0.833344 8.83332 0.833344 10.6667V17.3333H7.50001V14H10.8333V17.3333H24.1667V14H27.5V17.3333H34.1667V10.6667C34.1667 8.83332 32.6667 7.33332 30.8333 7.33332ZM22.5 7.33332H12.5V3.99999H22.5V7.33332Z" fill="white"/>
</svg>
