<svg width="33" height="34" viewBox="0 0 33 34" fill="none" xmlns="http://www.w3.org/2000/svg">
<path d="M29.1517 0.333313H12.5167C10.665 0.333313 9.16668 1.83165 9.16668 3.68331V13.0783L1.33001 20.815C1.0952 21.0472 0.934678 21.344 0.868812 21.6676C0.802946 21.9912 0.834707 22.3271 0.960063 22.6326C1.08542 22.9381 1.29872 23.1996 1.5729 23.3837C1.84707 23.5678 2.16976 23.6663 2.50001 23.6666V32C2.50001 32.442 2.6756 32.8659 2.98816 33.1785C3.30073 33.4911 3.72465 33.6666 4.16668 33.6666H30.8333C31.2754 33.6666 31.6993 33.4911 32.0119 33.1785C32.3244 32.8659 32.5 32.442 32.5 32V3.68165C32.5 1.83165 31.0033 0.333313 29.1517 0.333313ZM15.7033 22.185V30.3333H5.83334V21.0533L10.8117 16.1383L15.7033 21.1433V22.185V22.185ZM19.1667 12H15.8333V8.66665H19.1667V12ZM25.8333 25.3333H22.5V22H25.8333V25.3333ZM25.8333 18.6666H22.5V15.3333H25.8333V18.6666ZM25.8333 12H22.5V8.66665H25.8333V12Z" fill="#292E3D"/>
</svg>
